<?xml version="1.0" encoding="utf-8"?>
<!-- Generator: Adobe Illustrator 16.0.2, SVG Export Plug-In . SVG Version: 6.00 Build 0)  -->
<!DOCTYPE svg PUBLIC "-//W3C//DTD SVG 1.1//EN" "http://www.w3.org/Graphics/SVG/1.1/DTD/svg11.dtd">
<svg version="1.1" id="Слой_1" xmlns="http://www.w3.org/2000/svg" xmlns:xlink="http://www.w3.org/1999/xlink" x="0px" y="0px"
	 width="370.889px" height="71.734px" viewBox="0 0 370.889 71.734" enable-background="new 0 0 370.889 71.734"
	 xml:space="preserve">
<g>
	<path fill="#EF7D00" d="M23.277,21.793l6.816,45.791H17.899l-0.589-8.235h-4.277l-0.705,8.235H0l6.053-45.791H23.277L23.277,21.793
		z M16.973,51.239c-0.608-5.185-1.207-11.595-1.815-19.212c-1.207,8.756-1.96,15.157-2.259,19.212H16.973L16.973,51.239z
		 M44.043,21.793v36.629h7.241v9.162H32.13V21.793H44.043L44.043,21.793z M54.161,21.793h11.991c3.244,0,5.745,0.251,7.482,0.762
		c1.748,0.512,3.061,1.246,3.93,2.202c0.878,0.965,1.477,2.134,1.786,3.495c0.309,1.371,0.463,3.485,0.463,6.353v3.987
		c0,2.925-0.299,5.059-0.897,6.391c-0.608,1.342-1.719,2.365-3.331,3.089c-1.612,0.714-3.717,1.072-6.314,1.072h-3.195v18.44H54.161
		V21.793L54.161,21.793z M66.075,29.623v11.653c0.338,0.02,0.627,0.029,0.869,0.029c1.101,0,1.854-0.27,2.278-0.801
		c0.425-0.541,0.637-1.661,0.637-3.35v-3.765c0-1.564-0.241-2.587-0.734-3.05C68.633,29.864,67.62,29.623,66.075,29.623
		L66.075,29.623z M110.621,21.793v45.791H98.716V48.352h-3.562v19.232H83.24V21.793h11.914v16.374h3.562V21.793H110.621
		L110.621,21.793z M135.963,21.793l6.816,45.791h-12.193l-0.589-8.235h-4.277l-0.705,8.235h-12.329l6.053-45.791H135.963
		L135.963,21.793z M129.659,51.239c-0.608-5.185-1.207-11.595-1.815-19.212c-1.207,8.756-1.96,15.157-2.259,19.212H129.659
		L129.659,51.239z"/>
	<path fill="#EF7D00" d="M248.287,21.793v45.791h-11.904V48.352h-3.563v19.232h-11.913V21.793h11.913v16.374h3.563V21.793H248.287
		L248.287,21.793z M278.438,21.793l-8.68,29.214v16.577h-11.034V51.007l-8.371-29.214h10.948c1.709,8.92,2.675,14.925,2.877,18.015
		c0.666-4.885,1.767-10.89,3.312-18.015H278.438L278.438,21.793z M280.475,21.793h8.911c5.754,0,9.635,0.26,11.662,0.792
		c2.028,0.531,3.572,1.39,4.625,2.597c1.062,1.207,1.719,2.559,1.989,4.036c0.26,1.477,0.396,4.383,0.396,8.728V53.98
		c0,4.113-0.193,6.855-0.589,8.245c-0.387,1.38-1.053,2.471-2.019,3.253c-0.965,0.782-2.152,1.323-3.562,1.642
		c-1.42,0.309-3.544,0.463-6.392,0.463h-15.022V21.793L280.475,21.793z M292.389,29.623v30.122c1.708,0,2.771-0.338,3.166-1.023
		c0.396-0.695,0.589-2.568,0.589-5.619V35.309c0-2.076-0.067-3.398-0.193-3.987c-0.135-0.579-0.434-1.014-0.907-1.284
		C294.57,29.768,293.682,29.623,292.389,29.623L292.389,29.623z M312.488,21.793h8.429c5.619,0,9.423,0.212,11.412,0.647
		c1.988,0.434,3.61,1.544,4.865,3.321c1.255,1.786,1.883,4.625,1.883,8.535c0,3.563-0.444,5.957-1.332,7.183
		c-0.879,1.227-2.626,1.96-5.233,2.202c2.356,0.588,3.949,1.371,4.76,2.355c0.802,0.975,1.313,1.873,1.507,2.693
		c0.202,0.821,0.299,3.08,0.299,6.778v12.078h-11.055V52.369c0-2.452-0.202-3.968-0.589-4.557c-0.386-0.58-1.399-0.878-3.031-0.878
		v20.651h-11.914V21.793L312.488,21.793z M324.402,29.623v10.186c1.332,0,2.269-0.184,2.81-0.55s0.811-1.564,0.811-3.582v-2.51
		c0-1.458-0.261-2.404-0.781-2.858C326.72,29.854,325.773,29.623,324.402,29.623L324.402,29.623z M370.889,48.603
		c0,4.605-0.106,7.859-0.318,9.771c-0.223,1.921-0.898,3.668-2.037,5.252c-1.14,1.583-2.685,2.8-4.625,3.649
		s-4.209,1.274-6.787,1.274c-2.452,0-4.653-0.406-6.604-1.207c-1.96-0.801-3.523-1.999-4.711-3.601
		c-1.188-1.603-1.893-3.351-2.124-5.233c-0.223-1.893-0.338-5.194-0.338-9.906v-7.83c0-4.605,0.106-7.859,0.328-9.78
		c0.213-1.912,0.889-3.659,2.037-5.242c1.14-1.583,2.674-2.8,4.624-3.649c1.941-0.85,4.2-1.274,6.787-1.274
		c2.452,0,4.653,0.405,6.604,1.207s3.524,1.999,4.712,3.601s1.892,3.35,2.114,5.233c0.231,1.892,0.338,5.184,0.338,9.905V48.603
		L370.889,48.603z M358.984,33.562c0-2.134-0.115-3.495-0.356-4.093c-0.232-0.589-0.715-0.888-1.448-0.888
		c-0.628,0-1.101,0.241-1.429,0.724c-0.338,0.473-0.502,1.892-0.502,4.257v21.375c0,2.665,0.115,4.306,0.328,4.924
		c0.212,0.627,0.724,0.937,1.516,0.937c0.811,0,1.322-0.357,1.554-1.072c0.223-0.724,0.338-2.423,0.338-5.126V33.562L358.984,33.562
		z"/>
	
		<polygon fill-rule="evenodd" clip-rule="evenodd" fill="#008BD2" stroke="#008BD2" stroke-width="0.8504" stroke-linecap="round" stroke-linejoin="round" stroke-miterlimit="22.9256" points="
		207.647,51.936 208.876,56.418 211.281,65.196 212.51,69.678 203.921,71.734 202.692,67.252 200.287,58.475 199.059,53.993 
		207.647,51.936 	"/>
	
		<path fill-rule="evenodd" clip-rule="evenodd" fill="#008BD2" stroke="#008BD2" stroke-width="0.567" stroke-linecap="round" stroke-linejoin="round" stroke-miterlimit="22.9256" d="
		M168.162,68.091c11.787,0.181,16.231-12.057,17.398-24.334s-5.161-21.294-13.738-20.132c-8.576,1.163-14.545,10.645-15.438,22.917
		S159.644,67.96,168.162,68.091L168.162,68.091z M169.58,57.826c4.823,0.383,6.195-8.172,7.791-13.344
		c1.596-5.171,0.698-1.779,0.771-2.417c-0.755-0.906-0.85-1.106-1.139-1.703c-0.721-3.432-1.728-6.163-5.107-5.744
		c-3.768,0.522-6.506,6.65-7.025,12.185C164.35,52.339,164.757,57.443,169.58,57.826L169.58,57.826z"/>
	
		<polygon fill-rule="evenodd" clip-rule="evenodd" fill="#008BD2" stroke="#008BD2" stroke-width="0.8504" stroke-linecap="round" stroke-linejoin="round" stroke-miterlimit="22.9256" points="
		186.306,6.447 194.234,8.495 183.859,49.909 177.651,48.306 177.653,42.478 186.306,6.447 	"/>
	
		<polyline fill="none" stroke="#008BD2" stroke-width="0.8504" stroke-linecap="round" stroke-linejoin="round" stroke-miterlimit="22.9256" points="
		181.26,28.374 184.108,12.688 185.591,7.485 193.629,9.152 186.921,41.539 	"/>
	
		<polygon fill-rule="evenodd" clip-rule="evenodd" fill="#008BD2" stroke="#008BD2" stroke-width="0.8504" stroke-linecap="round" stroke-linejoin="round" stroke-miterlimit="22.9256" points="
		183.137,12.977 193.441,15.194 189.408,34.91 179.226,32.695 183.137,12.977 	"/>
	
		<path fill-rule="evenodd" clip-rule="evenodd" fill="#008BD2" stroke="#008BD2" stroke-width="0.8504" stroke-linecap="round" stroke-linejoin="round" stroke-miterlimit="22.9256" d="
		M179.27,25.204c0.11,0.085,0.22,0.169,0.33,0.254c0.984,0.758,1.846,1.558,2.8,3.204c1.8,3.107,1.9,5.77,3.021,8.851l6.206,19.38
		c1.392,2.896,6.427,2.97,9.063,2.361l2.001,7.999c-2.413,0.597-8.293,1.588-11.341,0.399c-3.063-1.195-6.287-3.839-7.296-6.763
		l0.001-0.001l-0.001,0c-2.969-8.153-6.875-20.419-7.731-22.757s-1.754-2.926-2.388-3.429
		C175.755,31.463,177.451,28.442,179.27,25.204L179.27,25.204z"/>
	
		<polygon fill-rule="evenodd" clip-rule="evenodd" fill="#008BD2" stroke="#008BD2" stroke-width="0.8504" stroke-linecap="round" stroke-linejoin="round" stroke-miterlimit="22.9256" points="
		181.111,1.76 186.473,3 184.564,11.879 179.203,10.639 181.111,1.76 	"/>
	
		<polygon fill-rule="evenodd" clip-rule="evenodd" fill="#008BD2" stroke="#008BD2" stroke-width="0.8504" stroke-linecap="round" stroke-linejoin="round" stroke-miterlimit="22.9256" points="
		194.655,4.758 199.736,5.878 197.828,14.757 192.747,13.637 194.655,4.758 	"/>
	
		<polygon fill-rule="evenodd" clip-rule="evenodd" fill="#008BD2" stroke="#008BD2" stroke-width="0.8504" stroke-linecap="round" stroke-linejoin="round" stroke-miterlimit="22.9256" points="
		186.473,3 194.655,4.758 192.747,13.637 184.564,11.879 186.473,3 	"/>
	<path fill="#FFFFFF" d="M179.569,23.674c-0.034-0.077-0.085-0.224-0.088-0.258l-0.304,0.343L179.569,23.674L179.569,23.674z
		 M179.481,23.417c0-0.007,0.001-0.01,0.005-0.006c0.523,0.462,2.826,2.122,6.133,9.572c1.351,3.042,1.951,5.542,3.721,10.7
		l-1.339,0.459c-1.711-4.988-2.25-7.363-3.541-10.312c-3.225-7.361-5.417-8.925-5.912-9.363c-0.188-0.166-0.289-0.251-0.342-0.498
		l0.971-0.21L179.481,23.417L179.481,23.417z"/>
	<path fill="#FFFFFF" d="M176.024,38.651c0.006,0.03,0.225,0.595,0.619,1.664c1.397,3.793,4.513,13.022,7.414,21.792l-1.346,0.443
		c-2.901-8.774-6.005-17.969-7.397-21.749c-0.415-1.127-0.658-1.788-0.679-1.902L176.024,38.651L176.024,38.651z"/>
	<path fill="none" stroke="#FFFFFF" stroke-width="1.4173" stroke-linecap="round" stroke-miterlimit="22.9256" d="M185.726,0
		l-5.286,25.31 M195.839,2.737l-7.138,35.607"/>
	
		<line fill="none" stroke="#FFFFFF" stroke-width="1.4173" stroke-miterlimit="22.9256" x1="201.865" y1="68.646" x2="216.63" y2="64.554"/>
	<polygon fill="#FFFFFF" points="199.513,57.618 214.378,53.909 214.718,55.278 199.852,58.987 199.513,57.618 	"/>
</g>
</svg>
