<?xml version="1.0" encoding="utf-8"?>
<!-- Generator: Adobe Illustrator 16.0.2, SVG Export Plug-In . SVG Version: 6.00 Build 0)  -->
<!DOCTYPE svg PUBLIC "-//W3C//DTD SVG 1.1//EN" "http://www.w3.org/Graphics/SVG/1.1/DTD/svg11.dtd">
<svg version="1.1" id="Слой_1" xmlns="http://www.w3.org/2000/svg" xmlns:xlink="http://www.w3.org/1999/xlink" x="0px" y="0px"
	 width="371.648px" height="73px" viewBox="0 0 371.648 73" enable-background="new 0 0 371.648 73" xml:space="preserve">
<g>
	<path fill="#EF7D00" d="M21.23,22.625l6.124,45.059H17.25l-0.529-8.104h-5.543l-0.633,8.104H0.319l5.438-45.059H21.23L21.23,22.625
		z M16.133,51.6c-0.546-5.102-1.651-11.409-2.197-18.904L11.339,51.6H16.133L16.133,51.6z"/>
	<path fill="#EF7D00" d="M21.511,22.587l6.123,45.059l0.044,0.321h-0.324H17.25h-0.265l-0.018-0.266l-0.512-7.838h-5.016
		l-0.613,7.841l-0.021,0.263h-0.262H0.319H0l0.038-0.316l5.438-45.059l0.03-0.25h0.251H21.23h0.247L21.511,22.587L21.511,22.587z
		 M27.03,67.399l-6.046-44.491H6.008l-5.37,44.491h9.644l0.613-7.841l0.021-0.263h0.262h5.543h0.265l0.017,0.266l0.512,7.838H27.03
		L27.03,67.399z M15.818,51.316c-0.19-1.726-0.44-3.581-0.708-5.569c-0.425-3.153-0.895-6.644-1.245-10.462l-2.202,16.031H15.818
		L15.818,51.316z M15.67,45.671c0.285,2.121,0.55,4.09,0.744,5.899l0.034,0.313h-0.315h-4.794h-0.324l0.044-0.32l2.597-18.905
		l0.367-2.669l0.196,2.687C14.571,37.506,15.154,41.839,15.67,45.671L15.67,45.671z"/>
	<path fill="#EF7D00" d="M56.613,67.684h-9.878V31.612h-4.824v25.526c0,3.353-0.392,5.765-1.179,7.229
		c-0.791,1.471-1.986,2.383-3.6,2.755c-1.604,0.369-3.322,0.561-6.843,0.561h-1.683v-7.762c1.31,0,2.203-0.181,2.698-0.532
		c0.485-0.352,0.737-1.558,0.737-3.619V22.597h24.572V67.684L56.613,67.684z"/>
	<path fill="#EF7D00" d="M56.613,67.967h-9.878h-0.284v-0.283V31.896h-4.256v25.243c0,1.688-0.1,3.145-0.299,4.368
		c-0.201,1.236-0.506,2.236-0.915,2.995c-0.414,0.771-0.937,1.397-1.569,1.881c-0.632,0.482-1.371,0.821-2.217,1.016
		c-0.815,0.188-1.659,0.331-2.741,0.426c-1.079,0.094-2.396,0.143-4.165,0.143h-1.683h-0.283v-0.283v-7.762v-0.284h0.283
		c0.635,0,1.167-0.043,1.595-0.127c0.41-0.081,0.723-0.198,0.937-0.351l0,0c0.184-0.133,0.331-0.465,0.439-0.995
		c0.119-0.582,0.18-1.381,0.18-2.395V22.597v-0.284h0.283h24.572h0.283v0.284v45.087v0.283H56.613L56.613,67.967z M47.018,67.399
		h9.312V22.88H32.325v32.891c0,1.047-0.065,1.883-0.193,2.507c-0.138,0.676-0.36,1.123-0.661,1.342l-0.002,0.001
		c-0.281,0.2-0.667,0.35-1.158,0.446c-0.399,0.079-0.872,0.124-1.419,0.136v7.197h1.399c1.752,0,3.055-0.047,4.116-0.141
		c1.057-0.092,1.875-0.23,2.664-0.412c0.767-0.176,1.434-0.48,2-0.914c0.567-0.433,1.038-0.999,1.414-1.699
		c0.378-0.704,0.664-1.644,0.855-2.817c0.193-1.187,0.29-2.613,0.29-4.277V31.612v-0.284h0.283h4.824h0.283v0.284V67.399
		L47.018,67.399z"/>
	<path fill="#EF7D00" d="M85.808,57.139c0,3.351-0.399,5.767-1.197,7.229c-0.79,1.472-2.004,2.384-3.617,2.755
		c-1.622,0.37-4.198,0.561-7.737,0.561H60.88V22.597h10.72v16.864h1.657c3.304,0,5.803,0.21,7.494,0.636
		c1.69,0.427,2.958,1.368,3.799,2.831c0.841,1.454,1.258,3.745,1.258,6.859V57.139L85.808,57.139z M75.654,56.621v-5.94
		c0-1.9-0.175-3.052-0.52-3.459c-0.345-0.406-1.902-0.636-3.533-0.693v14.244c1.362,0,2.848-0.194,3.325-0.57
		C75.408,59.822,75.654,58.625,75.654,56.621L75.654,56.621z"/>
	<path fill="#EF7D00" d="M86.091,57.139c0,1.688-0.102,3.146-0.304,4.369c-0.205,1.236-0.515,2.236-0.929,2.995
		c-0.413,0.77-0.937,1.395-1.569,1.875c-0.638,0.486-1.384,0.826-2.232,1.021c-0.828,0.189-1.896,0.332-3.206,0.427
		c-1.296,0.094-2.828,0.142-4.594,0.142H60.88h-0.284v-0.283V22.597v-0.284h0.284h10.72h0.284v0.284v16.58h1.373
		c1.659,0,3.118,0.054,4.375,0.16c1.264,0.106,2.327,0.269,3.187,0.485c0.881,0.222,1.654,0.58,2.318,1.074s1.217,1.124,1.657,1.89
		h0c0.437,0.755,0.762,1.722,0.978,2.897c0.213,1.164,0.319,2.533,0.319,4.104V57.139L86.091,57.139z M85.229,61.418
		c0.197-1.188,0.295-2.615,0.295-4.279v-7.352c0-1.544-0.102-2.878-0.308-4.001c-0.203-1.111-0.507-2.018-0.911-2.717v-0.001
		c-0.4-0.696-0.903-1.27-1.505-1.718c-0.603-0.449-1.309-0.775-2.118-0.979c-0.83-0.21-1.863-0.366-3.097-0.471
		c-1.24-0.105-2.684-0.157-4.329-0.157h-1.657h-0.283v-0.283V22.88H61.164v44.52h12.093c1.76,0,3.278-0.047,4.554-0.139
		c1.281-0.093,2.32-0.231,3.119-0.414c0.77-0.177,1.443-0.482,2.016-0.918c0.569-0.434,1.042-0.997,1.415-1.693l0.001-0.003
		C84.746,63.53,85.035,62.59,85.229,61.418L85.229,61.418z M75.371,56.621v-5.94c0-0.936-0.043-1.685-0.127-2.245
		c-0.079-0.524-0.188-0.868-0.326-1.03c-0.116-0.137-0.488-0.26-1.006-0.361c-0.567-0.111-1.282-0.185-2.027-0.221v13.662
		c0.617-0.012,1.241-0.063,1.765-0.153c0.511-0.087,0.917-0.206,1.102-0.353c0.188-0.148,0.336-0.488,0.444-1.017v-0.002
		C75.312,58.386,75.371,57.604,75.371,56.621L75.371,56.621z M75.938,50.681v5.94c0,1.017-0.063,1.835-0.189,2.453l0,0
		c-0.136,0.666-0.353,1.117-0.647,1.351c-0.264,0.207-0.758,0.363-1.356,0.466c-0.639,0.109-1.411,0.165-2.144,0.165h-0.283v-0.283
		V46.528v-0.292l0.292,0.01c0.883,0.031,1.744,0.112,2.411,0.242c0.638,0.125,1.123,0.308,1.33,0.551
		c0.208,0.244,0.36,0.683,0.454,1.313C75.893,48.942,75.938,49.719,75.938,50.681L75.938,50.681z"/>
	<path fill="#EF7D00" d="M149.482,22.625l6.124,45.059h-10.104l-0.529-8.104h-5.543l-0.633,8.104h-10.225l5.438-45.059H149.482
		L149.482,22.625z M144.386,51.6c-0.546-5.102-1.651-11.409-2.197-18.904L139.592,51.6H144.386L144.386,51.6z"/>
	<path fill="#EF7D00" d="M149.763,22.587l6.124,45.059l0.043,0.321h-0.324h-10.104h-0.265l-0.018-0.266l-0.512-7.838h-5.016
		l-0.613,7.841l-0.021,0.263h-0.262h-10.225h-0.319l0.038-0.316l5.438-45.059l0.03-0.25h0.251h15.473h0.247L149.763,22.587
		L149.763,22.587z M155.282,67.399l-6.046-44.491H134.26l-5.37,44.491h9.644l0.613-7.841l0.021-0.263h0.262h5.543h0.265l0.017,0.266
		l0.512,7.838H155.282L155.282,67.399z M144.07,51.316c-0.19-1.727-0.44-3.582-0.708-5.571c-0.424-3.153-0.895-6.643-1.244-10.461
		l-2.202,16.032H144.07L144.07,51.316z M143.922,45.67c0.285,2.121,0.551,4.091,0.745,5.9l0.034,0.313h-0.315h-4.794h-0.324
		l0.044-0.32l2.597-18.905l0.367-2.669l0.196,2.687C142.823,37.506,143.406,41.837,143.922,45.67L143.922,45.67z"/>
	<path fill="#EF7D00" d="M127.911,40.208c0,2.945-0.13,5.073-0.382,6.374c-0.355,1.796-1.11,3.421-2.264,4.864
		c-1.795,2.252-5.178,3.373-10.139,3.373h-1.695v12.962l-10.908-0.023V54.819h-1.656c-4.978,0-8.36-1.122-10.157-3.373
		c-1.153-1.444-1.908-3.068-2.264-4.864c-0.26-1.301-0.381-3.429-0.381-6.374v-0.779c0-2.954,0.121-5.072,0.381-6.374
		c0.355-1.806,1.11-3.43,2.264-4.874c1.778-2.185,5.165-3.058,10.157-3.287l1.656-0.075h10.72c0.868,0.047,1.492,0.075,1.882,0.075
		c4.996,0,8.378,1.103,10.139,3.287c1.153,1.444,1.908,3.068,2.264,4.874c0.252,1.302,0.382,3.42,0.382,6.374V40.208L127.911,40.208
		z M113.432,31.829v15.979h0.906c0.815,0,2.346-0.464,2.897-1.396c0.549-0.928,0.824-2.146,0.824-3.676v-5.814
		c0-1.539-0.273-2.777-0.824-3.705c-0.55-0.925-2.083-1.387-2.897-1.387H113.432L113.432,31.829z M102.524,47.808V31.829h-0.893
		c-0.797,0-2.321,0.462-2.872,1.387c-0.551,0.928-0.824,2.167-0.824,3.705v5.814c0,1.528,0.275,2.748,0.824,3.676
		c0.552,0.933,2.073,1.396,2.872,1.396H102.524L102.524,47.808z"/>
	<path fill="#EF7D00" d="M128.194,40.208c0,1.466-0.033,2.736-0.097,3.809c-0.064,1.081-0.162,1.955-0.291,2.619v0.001
		c-0.182,0.921-0.467,1.8-0.854,2.631c-0.386,0.829-0.875,1.615-1.466,2.354c-0.932,1.169-2.271,2.043-4.016,2.623
		c-1.721,0.571-3.837,0.857-6.345,0.857h-1.411v12.679v0.283l-0.284-0.001l-10.908-0.023h-0.283v-0.282V55.103h-1.373
		c-2.517,0-4.637-0.286-6.36-0.858c-1.746-0.579-3.085-1.453-4.018-2.622c-0.59-0.738-1.079-1.525-1.466-2.356h0
		c-0.386-0.83-0.671-1.707-0.854-2.628h0c-0.132-0.661-0.229-1.532-0.292-2.609c-0.064-1.075-0.095-2.35-0.095-3.82v-0.779
		c0-1.476,0.031-2.75,0.095-3.824c0.063-1.076,0.161-1.944,0.292-2.605h0c0.182-0.924,0.467-1.803,0.853-2.636
		c0.387-0.832,0.876-1.619,1.467-2.358l0.002-0.002c0.926-1.139,2.263-1.933,4.009-2.469c1.716-0.527,3.835-0.807,6.354-0.923
		l1.657-0.075l0.012-0.002h10.72l0.016,0.002c0.442,0.023,0.816,0.043,1.116,0.056c0.295,0.012,0.545,0.019,0.751,0.019
		c2.523,0,4.646,0.28,6.365,0.837c1.746,0.566,3.078,1.42,3.995,2.557l0.001,0.001c0.59,0.739,1.08,1.526,1.466,2.359
		c0.387,0.832,0.671,1.712,0.854,2.636v0.001c0.128,0.665,0.226,1.537,0.291,2.618c0.064,1.071,0.097,2.341,0.097,3.81V40.208
		L128.194,40.208z M127.533,43.983c0.063-1.048,0.095-2.307,0.095-3.775v-0.779c0-1.472-0.032-2.73-0.094-3.776
		c-0.063-1.055-0.158-1.902-0.281-2.544h0c-0.173-0.88-0.444-1.716-0.812-2.507c-0.367-0.791-0.833-1.54-1.396-2.244
		c-0.846-1.049-2.089-1.841-3.726-2.372c-1.66-0.537-3.724-0.808-6.192-0.808c-0.184,0-0.442-0.008-0.773-0.021
		c-0.323-0.013-0.691-0.032-1.109-0.055l0,0h-10.72v-0.001l-1.644,0.076c-2.472,0.113-4.544,0.385-6.212,0.897
		c-1.638,0.503-2.884,1.237-3.735,2.282l0,0.001c-0.563,0.704-1.028,1.452-1.396,2.243c-0.367,0.792-0.638,1.628-0.812,2.508v0.001
		c-0.128,0.64-0.222,1.482-0.284,2.529c-0.062,1.048-0.092,2.312-0.092,3.79v0.779c0,1.474,0.03,2.737,0.092,3.787
		c0.062,1.047,0.156,1.893,0.284,2.532v0.001c0.173,0.874,0.444,1.707,0.812,2.498v0.002c0.368,0.789,0.833,1.538,1.396,2.242
		c0.863,1.082,2.114,1.895,3.752,2.438c1.661,0.551,3.722,0.826,6.183,0.826h1.656h0.284v0.284v12.656l10.341,0.023v-12.68v-0.284
		h0.283h1.695c2.453,0,4.51-0.275,6.168-0.826c1.636-0.543,2.887-1.356,3.75-2.438c0.561-0.703,1.026-1.451,1.395-2.242
		c0.368-0.792,0.639-1.626,0.812-2.5h0C127.375,45.887,127.47,45.038,127.533,43.983L127.533,43.983z M113.715,32.112v15.412h0.622
		c0.423,0,1.059-0.137,1.627-0.411c0.43-0.207,0.816-0.49,1.026-0.846c0.259-0.438,0.455-0.949,0.585-1.531
		c0.132-0.589,0.198-1.256,0.198-2.001v-5.814c0-0.753-0.066-1.429-0.198-2.024c-0.13-0.586-0.326-1.099-0.585-1.536
		c-0.209-0.353-0.596-0.634-1.025-0.84c-0.568-0.271-1.205-0.408-1.628-0.408H113.715L113.715,32.112z M113.148,47.808V31.829
		v-0.283h0.283h0.906c0.491,0,1.223,0.155,1.873,0.466c0.521,0.25,0.996,0.603,1.268,1.061c0.29,0.487,0.506,1.056,0.65,1.702
		c0.142,0.642,0.214,1.358,0.214,2.146v5.814c0,0.783-0.072,1.491-0.214,2.125c-0.144,0.642-0.361,1.206-0.65,1.695
		c-0.273,0.462-0.747,0.816-1.268,1.067c-0.648,0.313-1.381,0.468-1.873,0.468h-0.906h-0.283V47.808L113.148,47.808z
		 M102.241,47.524V32.112h-0.61c-0.734,0-2.133,0.416-2.628,1.248c-0.26,0.437-0.455,0.95-0.585,1.536
		c-0.132,0.596-0.199,1.271-0.199,2.024v5.814c0,0.745,0.066,1.412,0.199,2.001c0.13,0.582,0.326,1.093,0.585,1.531
		c0.21,0.354,0.594,0.638,1.019,0.845c0.565,0.274,1.194,0.412,1.609,0.412H102.241L102.241,47.524z M102.808,31.829v15.979v0.283
		h-0.284h-0.893c-0.483,0-1.21-0.156-1.855-0.47c-0.516-0.251-0.987-0.605-1.26-1.065c-0.29-0.489-0.506-1.054-0.65-1.695
		c-0.142-0.635-0.214-1.343-0.214-2.125v-5.814c0-0.788,0.072-1.504,0.214-2.146c0.144-0.646,0.361-1.215,0.65-1.702
		c0.605-1.018,2.255-1.526,3.115-1.526h0.893h0.284V31.829L102.808,31.829z"/>
	<path fill="#EF7D00" d="M127.927,40.04c0,2.945-0.13,5.073-0.381,6.374c-0.355,1.796-1.11,3.42-2.264,4.864
		c-1.795,2.252-5.178,3.373-10.139,3.373h-1.882v7.457h-10.72v-7.457h-1.657c-4.978,0-8.361-1.121-10.156-3.373
		c-1.154-1.444-1.908-3.068-2.264-4.864c-0.26-1.301-0.382-3.429-0.382-6.374v-0.779c0-2.954,0.122-5.073,0.382-6.374
		c0.355-1.806,1.11-3.43,2.264-4.874c1.778-2.185,5.161-3.287,10.156-3.287c0.373,0,0.928-0.028,1.657-0.076v-1.957l10.72,0.012
		v1.945c0.868,0.048,1.492,0.076,1.882,0.076c4.996,0,8.378,1.103,10.139,3.287c1.153,1.444,1.908,3.068,2.264,4.874
		c0.251,1.301,0.381,3.42,0.381,6.374V40.04L127.927,40.04z M118.075,42.567v-5.814c0-1.539-0.273-2.778-0.824-3.705
		c-0.55-0.925-2.083-1.387-2.897-1.387h-1.093V47.64h1.093c0.815,0,2.346-0.464,2.897-1.396
		C117.8,45.315,118.075,44.097,118.075,42.567L118.075,42.567z M102.541,47.64V31.661h-0.894c-0.797,0-2.321,0.462-2.871,1.387
		c-0.551,0.927-0.824,2.167-0.824,3.705v5.814c0,1.528,0.275,2.748,0.824,3.676c0.552,0.933,2.073,1.396,2.871,1.396H102.541
		L102.541,47.64z"/>
	<path fill="#EF7D00" d="M128.211,40.04c0,1.466-0.033,2.736-0.097,3.809c-0.064,1.081-0.162,1.954-0.29,2.619v0.001
		c-0.182,0.921-0.467,1.8-0.854,2.631c-0.386,0.829-0.875,1.615-1.466,2.354c-0.932,1.169-2.271,2.043-4.015,2.623
		c-1.721,0.571-3.837,0.857-6.345,0.857h-1.599v7.174v0.283h-0.283h-10.72h-0.283v-0.283v-7.174h-1.374
		c-2.517,0-4.637-0.286-6.36-0.857c-1.746-0.58-3.085-1.454-4.017-2.623c-0.591-0.739-1.08-1.525-1.466-2.354v-0.001
		c-0.387-0.832-0.672-1.709-0.854-2.629l0,0c-0.132-0.661-0.229-1.532-0.293-2.609c-0.063-1.076-0.094-2.35-0.094-3.82v-0.779
		c0-1.476,0.031-2.75,0.094-3.824c0.063-1.076,0.161-1.944,0.293-2.605l0,0c0.182-0.924,0.467-1.803,0.854-2.636
		c0.387-0.833,0.876-1.619,1.467-2.358l0.002-0.002c0.925-1.137,2.262-1.99,4.01-2.556c1.721-0.557,3.843-0.837,6.365-0.837
		c0.193,0,0.421-0.007,0.682-0.019c0.2-0.01,0.431-0.023,0.692-0.039v-1.692V22.41h0.283l10.72,0.012h0.283v0.282v1.678
		c0.327,0.018,0.611,0.032,0.848,0.042c0.295,0.012,0.545,0.019,0.751,0.019c2.523,0,4.646,0.28,6.365,0.837
		c1.746,0.566,3.078,1.42,3.995,2.557l0.001,0.001c0.59,0.739,1.08,1.526,1.467,2.359c0.387,0.832,0.671,1.712,0.854,2.636v0.001
		c0.128,0.665,0.226,1.537,0.291,2.618c0.064,1.071,0.097,2.341,0.097,3.81V40.04L128.211,40.04z M127.549,43.815
		c0.063-1.048,0.095-2.307,0.095-3.775v-0.779c0-1.473-0.032-2.73-0.095-3.776c-0.063-1.055-0.157-1.902-0.281-2.544h0
		c-0.173-0.88-0.444-1.716-0.812-2.507c-0.367-0.792-0.833-1.54-1.396-2.245c-0.845-1.049-2.088-1.84-3.726-2.371
		c-1.66-0.537-3.724-0.809-6.192-0.809c-0.184,0-0.443-0.007-0.773-0.021c-0.327-0.014-0.7-0.033-1.125-0.056l-0.268-0.015v-0.269
		v-1.663l-10.153-0.011v1.674v0.266l-0.266,0.018c-0.357,0.022-0.679,0.042-0.966,0.056c-0.292,0.014-0.53,0.021-0.708,0.021
		c-2.467,0-4.531,0.271-6.192,0.809c-1.64,0.53-2.888,1.322-3.743,2.371l0,0c-0.563,0.705-1.028,1.453-1.396,2.244
		c-0.368,0.791-0.639,1.628-0.812,2.508v0.001c-0.128,0.64-0.222,1.482-0.284,2.529c-0.063,1.048-0.092,2.312-0.092,3.79v0.779
		c0,1.474,0.03,2.737,0.092,3.787c0.062,1.047,0.156,1.893,0.284,2.532v0.001c0.173,0.875,0.444,1.71,0.812,2.5h0
		c0.369,0.791,0.834,1.539,1.395,2.242c0.863,1.082,2.114,1.895,3.752,2.438c1.661,0.552,3.722,0.826,6.183,0.826h1.657h0.284v0.284
		v7.174h10.153v-7.174v-0.284h0.284h1.882c2.453,0,4.509-0.275,6.167-0.826c1.636-0.544,2.887-1.356,3.75-2.438
		c0.562-0.703,1.027-1.451,1.395-2.242c0.369-0.792,0.64-1.626,0.813-2.5h0C127.392,45.719,127.486,44.87,127.549,43.815
		L127.549,43.815z M117.792,42.567v-5.814c0-0.753-0.066-1.429-0.198-2.024c-0.13-0.586-0.326-1.099-0.586-1.537
		c-0.209-0.352-0.595-0.633-1.025-0.839c-0.568-0.271-1.205-0.408-1.629-0.408h-0.81v15.412h0.81c0.423,0,1.059-0.137,1.627-0.411
		c0.43-0.207,0.816-0.49,1.026-0.846c0.26-0.439,0.455-0.949,0.586-1.531C117.725,43.979,117.792,43.313,117.792,42.567
		L117.792,42.567z M118.358,36.753v5.814c0,0.783-0.072,1.491-0.214,2.125c-0.144,0.642-0.361,1.206-0.65,1.695
		c-0.273,0.462-0.748,0.816-1.268,1.067c-0.649,0.312-1.381,0.468-1.874,0.468h-1.093h-0.284V47.64V31.661v-0.284h0.284h1.093
		c0.491,0,1.224,0.156,1.873,0.467c0.521,0.25,0.996,0.602,1.269,1.061c0.289,0.487,0.506,1.056,0.65,1.702
		C118.287,35.248,118.358,35.965,118.358,36.753L118.358,36.753z M102.257,47.356V31.944h-0.61c-0.734,0-2.133,0.416-2.627,1.247
		c-0.26,0.438-0.456,0.951-0.586,1.537c-0.132,0.596-0.198,1.271-0.198,2.024v5.814c0,0.745,0.066,1.412,0.198,2.001
		c0.131,0.582,0.327,1.092,0.586,1.531c0.21,0.354,0.593,0.638,1.019,0.845c0.565,0.274,1.195,0.412,1.609,0.412H102.257
		L102.257,47.356z M102.824,31.661V47.64v0.283h-0.284h-0.894c-0.483,0-1.21-0.156-1.855-0.47c-0.516-0.251-0.987-0.605-1.26-1.065
		c-0.289-0.489-0.506-1.055-0.65-1.695c-0.143-0.635-0.214-1.343-0.214-2.125v-5.814c0-0.788,0.071-1.505,0.214-2.146
		c0.144-0.646,0.361-1.215,0.65-1.702c0.605-1.019,2.255-1.527,3.115-1.527h0.894h0.284V31.661L102.824,31.661z"/>
	
		<polygon fill-rule="evenodd" clip-rule="evenodd" fill="#008BD2" stroke="#008BD2" stroke-width="0.8504" stroke-linecap="round" stroke-linejoin="round" stroke-miterlimit="22.9256" points="
		219.064,51.936 220.293,56.418 222.698,65.195 223.927,69.678 215.338,71.734 214.109,67.252 211.704,58.475 210.476,53.992 
		219.064,51.936 	"/>
	
		<path fill-rule="evenodd" clip-rule="evenodd" fill="#008BD2" stroke="#008BD2" stroke-width="0.567" stroke-linecap="round" stroke-linejoin="round" stroke-miterlimit="22.9256" d="
		M179.579,68.091c11.787,0.181,16.231-12.058,17.398-24.335c1.167-12.276-5.161-21.294-13.738-20.132
		c-8.576,1.163-14.545,10.646-15.438,22.918C166.908,58.813,171.061,67.96,179.579,68.091L179.579,68.091z M180.997,57.826
		c4.822,0.383,6.196-8.173,7.791-13.345c1.596-5.171,0.697-1.779,0.771-2.417c-0.755-0.905-0.85-1.105-1.139-1.702
		c-0.721-3.432-1.728-6.164-5.107-5.744c-3.768,0.522-6.506,6.65-7.025,12.186C175.767,52.339,176.174,57.442,180.997,57.826
		L180.997,57.826z"/>
	
		<polygon fill-rule="evenodd" clip-rule="evenodd" fill="#008BD2" stroke="#008BD2" stroke-width="0.8504" stroke-linecap="round" stroke-linejoin="round" stroke-miterlimit="22.9256" points="
		197.723,6.446 205.651,8.494 195.276,49.909 189.068,48.306 189.07,42.478 197.723,6.446 	"/>
	
		<polyline fill="none" stroke="#008BD2" stroke-width="0.8504" stroke-linecap="round" stroke-linejoin="round" stroke-miterlimit="22.9256" points="
		192.677,28.374 195.525,12.688 197.008,7.485 205.046,9.151 198.338,41.538 	"/>
	
		<polygon fill-rule="evenodd" clip-rule="evenodd" fill="#008BD2" stroke="#008BD2" stroke-width="0.8504" stroke-linecap="round" stroke-linejoin="round" stroke-miterlimit="22.9256" points="
		194.553,12.977 204.858,15.194 200.825,34.909 190.643,32.695 194.553,12.977 	"/>
	
		<path fill-rule="evenodd" clip-rule="evenodd" fill="#008BD2" stroke="#008BD2" stroke-width="0.8504" stroke-linecap="round" stroke-linejoin="round" stroke-miterlimit="22.9256" d="
		M190.688,25.203c0.109,0.085,0.22,0.17,0.329,0.255c0.984,0.758,1.847,1.557,2.801,3.203c1.8,3.107,1.9,5.771,3.021,8.851
		l6.206,19.38c1.392,2.896,6.427,2.971,9.063,2.361l2.001,7.999c-2.413,0.597-8.293,1.588-11.341,0.399
		c-3.063-1.195-6.287-3.84-7.296-6.764l0.001-0.001l-0.001,0.001c-2.969-8.154-6.876-20.42-7.731-22.758
		c-0.855-2.337-1.753-2.926-2.388-3.428C187.172,31.463,188.868,28.442,190.688,25.203L190.688,25.203z"/>
	
		<polygon fill-rule="evenodd" clip-rule="evenodd" fill="#008BD2" stroke="#008BD2" stroke-width="0.8504" stroke-linecap="round" stroke-linejoin="round" stroke-miterlimit="22.9256" points="
		192.528,1.76 197.89,3 195.981,11.879 190.619,10.639 192.528,1.76 	"/>
	
		<polygon fill-rule="evenodd" clip-rule="evenodd" fill="#008BD2" stroke="#008BD2" stroke-width="0.8504" stroke-linecap="round" stroke-linejoin="round" stroke-miterlimit="22.9256" points="
		206.072,4.758 211.153,5.878 209.245,14.757 204.164,13.637 206.072,4.758 	"/>
	
		<polygon fill-rule="evenodd" clip-rule="evenodd" fill="#008BD2" stroke="#008BD2" stroke-width="0.8504" stroke-linecap="round" stroke-linejoin="round" stroke-miterlimit="22.9256" points="
		197.89,3 206.072,4.758 204.164,13.637 195.981,11.879 197.89,3 	"/>
	<path fill="#FFFFFF" d="M190.986,23.674c-0.034-0.077-0.086-0.224-0.088-0.258l-0.304,0.343L190.986,23.674L190.986,23.674z
		 M190.898,23.416c0-0.007,0.001-0.01,0.005-0.006c0.524,0.463,2.827,2.122,6.134,9.572c1.351,3.042,1.951,5.543,3.721,10.7
		l-1.339,0.46c-1.711-4.988-2.25-7.363-3.542-10.312c-3.224-7.361-5.416-8.926-5.911-9.363c-0.188-0.166-0.289-0.251-0.343-0.498
		l0.972-0.211L190.898,23.416L190.898,23.416z"/>
	<path fill="#FFFFFF" d="M187.441,38.65c0.006,0.03,0.225,0.596,0.618,1.664c1.397,3.793,4.514,13.022,7.414,21.792l-1.346,0.443
		c-2.901-8.774-6.005-17.969-7.396-21.748c-0.416-1.128-0.659-1.788-0.679-1.902L187.441,38.65L187.441,38.65z"/>
	<path fill="none" stroke="#FFFFFF" stroke-width="1.4173" stroke-linecap="round" stroke-miterlimit="22.9256" d="M197.142,0
		l-5.285,25.31 M207.256,2.736l-7.138,35.606"/>
	
		<line fill="none" stroke="#FFFFFF" stroke-width="1.4173" stroke-miterlimit="22.9256" x1="213.282" y1="68.646" x2="228.047" y2="64.554"/>
	<polygon fill="#FFFFFF" points="210.93,57.617 225.795,53.908 226.134,55.277 211.269,58.986 210.93,57.617 	"/>
	<path fill="#EF7D00" d="M248.852,31.475h-8.334v36.071h-11.37V22.459h19.704V31.475L248.852,31.475z M277.231,67.546h-9.484v-20.51
		l-5.906,20.51h-9.944V22.459h9.484v20.34l6.366-20.34h9.484V67.546L277.231,67.546z M314.202,71.056h-7.838v-3.51H288.04v3.51
		h-7.819V58.141h3.181l28.482-0.057h2.318V71.056L314.202,71.056z M317.734,22.487h11.425c3.091,0,5.474,0.247,7.13,0.751
		c1.665,0.503,2.916,1.226,3.744,2.166c0.837,0.95,1.407,2.1,1.701,3.438c0.294,1.35,0.441,3.43,0.441,6.251v3.924
		c0,2.879-0.285,4.978-0.855,6.289c-0.579,1.32-1.638,2.327-3.173,3.04c-1.536,0.703-3.542,1.055-6.017,1.055h-3.045v18.145h-11.352
		V22.487L317.734,22.487z M329.086,30.192v11.466c0.322,0.02,0.598,0.028,0.828,0.028c1.048,0,1.768-0.264,2.171-0.788
		c0.406-0.53,0.606-1.634,0.606-3.297v-3.704c0-1.539-0.232-2.544-0.698-3.002C331.521,30.433,330.558,30.192,329.086,30.192
		L329.086,30.192z M371.365,48.869c0,4.531-0.102,7.733-0.304,9.614c-0.212,1.89-0.855,3.609-1.941,5.168
		c-1.086,1.558-2.558,2.755-4.406,3.591s-4.011,1.254-6.467,1.254c-2.337,0-4.435-0.399-6.292-1.188
		c-1.868-0.788-3.357-1.967-4.489-3.544c-1.132-1.576-1.803-3.296-2.024-5.148c-0.211-1.862-0.321-5.111-0.321-9.747v-7.704
		c0-4.532,0.101-7.733,0.313-9.624c0.202-1.881,0.847-3.601,1.94-5.158c1.086-1.559,2.549-2.755,4.407-3.591
		c1.849-0.836,4.001-1.254,6.467-1.254c2.337,0,4.434,0.398,6.292,1.188c1.858,0.788,3.357,1.966,4.489,3.543
		s1.803,3.297,2.015,5.149c0.221,1.861,0.322,5.102,0.322,9.747V48.869L371.365,48.869z M360.03,34.068
		c0-2.1-0.113-3.439-0.34-4.028c-0.223-0.578-0.689-0.874-1.389-0.874c-0.598,0-1.053,0.242-1.369,0.713
		c-0.316,0.468-0.479,1.863-0.479,4.189v21.033c0,2.62,0.112,4.236,0.313,4.845c0.203,0.616,0.698,0.921,1.453,0.921
		c0.772,0,1.274-0.35,1.488-1.054c0.217-0.71,0.322-2.385,0.322-5.045V34.068L360.03,34.068z"/>
	<path fill="#EF7D00" d="M248.852,31.758h-8.051v35.788v0.283h-0.283h-11.37h-0.283v-0.283V22.459v-0.283h0.283h19.704h0.283v0.283
		v9.016v0.283H248.852L248.852,31.758z M240.518,31.191h8.051v-8.449h-19.138v44.521h10.804V31.475v-0.283H240.518L240.518,31.191z
		 M277.231,67.829h-9.484h-0.284v-0.283V49.044l-5.35,18.579l-0.06,0.206h-0.213h-9.944h-0.283v-0.283V22.459v-0.283h0.283h9.484
		h0.283v0.283v18.486l5.813-18.57l0.063-0.199h0.208h9.484h0.283v0.283v45.087v0.283H277.231L277.231,67.829z M268.03,67.263h8.917
		V22.742h-8.993l-6.303,20.141l-0.554,1.769v-1.853V22.742h-8.918v44.521h9.448l5.847-20.305l0.556-1.93v2.008V67.263L268.03,67.263
		z M314.202,71.339h-7.838h-0.283v-0.283v-3.227h-17.758v3.227v0.283h-0.283h-7.819h-0.283v-0.283V58.141v-0.283h0.283h3.181v0.001
		l28.482-0.057v-0.001h2.318h0.283v0.283v12.972v0.283H314.202L314.202,71.339z M306.647,70.772h7.271V58.367h-2.034v-0.001
		l-28.482,0.057v0.002h-2.897v12.348h7.252v-3.227v-0.283h0.284h18.324h0.283v0.283V70.772L306.647,70.772z M317.734,22.204h11.425
		c1.551,0,2.929,0.063,4.132,0.188c1.205,0.126,2.233,0.318,3.079,0.575l0.001-0.001c0.853,0.258,1.603,0.574,2.247,0.947
		c0.651,0.376,1.194,0.812,1.627,1.303c0.435,0.493,0.801,1.04,1.097,1.638c0.294,0.594,0.519,1.238,0.67,1.929
		c0.149,0.687,0.262,1.558,0.336,2.613c0.074,1.052,0.112,2.284,0.112,3.697v3.924c0,2.916-0.294,5.054-0.88,6.401
		c-0.305,0.694-0.736,1.308-1.292,1.84v0.001c-0.552,0.526-1.226,0.975-2.022,1.344h-0.001c-0.792,0.362-1.701,0.634-2.725,0.813
		c-1.02,0.178-2.156,0.268-3.409,0.268h-2.762v17.861v0.283h-0.283h-11.352h-0.284v-0.283V22.487v-0.283H317.734L317.734,22.204z
		 M329.159,22.771h-11.142v44.491h10.785V49.401v-0.283h0.283h3.045c1.222,0,2.326-0.087,3.312-0.26
		c0.98-0.172,1.843-0.428,2.586-0.768V48.09c0.739-0.343,1.363-0.756,1.869-1.24l0.001,0.001c0.501-0.479,0.889-1.031,1.163-1.657
		c0.554-1.272,0.831-3.335,0.831-6.176v-3.924c0-1.407-0.036-2.627-0.109-3.657c-0.072-1.026-0.181-1.871-0.325-2.533
		c-0.143-0.646-0.351-1.248-0.623-1.799s-0.611-1.056-1.015-1.514c-0.394-0.446-0.89-0.843-1.485-1.188
		c-0.604-0.35-1.314-0.648-2.128-0.895v-0.001c-0.81-0.245-1.802-0.43-2.974-0.553C332.059,22.832,330.7,22.771,329.159,22.771
		L329.159,22.771z M329.369,30.479v10.912l0.173,0.007c0.115,0.004,0.241,0.006,0.372,0.006c0.492,0,0.902-0.061,1.231-0.18
		c0.31-0.113,0.548-0.278,0.715-0.496h-0.001c0.177-0.229,0.312-0.599,0.403-1.104c0.097-0.529,0.146-1.204,0.146-2.022v-3.704
		c0-0.75-0.056-1.365-0.167-1.844c-0.104-0.447-0.253-0.768-0.446-0.957c-0.2-0.196-0.518-0.349-0.954-0.454
		C330.445,30.548,329.955,30.492,329.369,30.479L329.369,30.479z M328.803,41.658V30.192v-0.283h0.283
		c0.752,0,1.381,0.063,1.888,0.185c0.538,0.13,0.944,0.331,1.217,0.6c0.272,0.268,0.474,0.679,0.603,1.231
		c0.121,0.522,0.183,1.182,0.183,1.973v3.704c0,0.845-0.053,1.554-0.157,2.124c-0.108,0.595-0.278,1.045-0.509,1.345h-0.001
		c-0.235,0.306-0.56,0.535-0.971,0.685c-0.394,0.144-0.868,0.216-1.424,0.216c-0.101,0-0.229-0.003-0.39-0.009
		c-0.149-0.005-0.301-0.012-0.454-0.021l-0.268-0.016V41.658L328.803,41.658z M371.648,48.869c0,4.537-0.103,7.749-0.306,9.644
		v0.001c-0.108,0.968-0.328,1.894-0.659,2.776c-0.332,0.885-0.775,1.726-1.331,2.522c-0.557,0.799-1.213,1.507-1.969,2.122
		c-0.755,0.615-1.607,1.138-2.554,1.565c-0.943,0.427-1.967,0.747-3.066,0.96c-1.099,0.213-2.272,0.319-3.517,0.319
		c-1.183,0-2.31-0.102-3.378-0.304c-1.069-0.202-2.078-0.505-3.025-0.907h0.001c-0.957-0.403-1.817-0.908-2.585-1.515
		c-0.771-0.608-1.445-1.316-2.024-2.124c-0.577-0.805-1.039-1.647-1.385-2.527c-0.347-0.883-0.576-1.801-0.69-2.753v-0.002
		c-0.106-0.939-0.188-2.235-0.242-3.884c-0.054-1.642-0.082-3.607-0.082-5.895v-7.704c0-2.249,0.026-4.186,0.078-5.812
		c0.053-1.614,0.132-2.895,0.237-3.843c0.104-0.965,0.321-1.889,0.652-2.77s0.777-1.722,1.338-2.52h-0.001
		c0.558-0.8,1.213-1.508,1.968-2.125c0.754-0.613,1.604-1.136,2.556-1.563c0.944-0.427,1.966-0.747,3.065-0.96
		c1.096-0.213,2.27-0.319,3.518-0.319c1.183,0,2.309,0.103,3.378,0.304c1.069,0.202,2.078,0.506,3.024,0.907l0,0
		c0.954,0.405,1.816,0.911,2.586,1.519s1.445,1.314,2.023,2.12l-0.001,0.001c0.58,0.808,1.042,1.652,1.386,2.531
		c0.345,0.881,0.572,1.798,0.681,2.749c0.11,0.933,0.191,2.218,0.245,3.854c0.053,1.646,0.079,3.621,0.079,5.927V48.869
		L371.648,48.869z M370.78,58.452c0.2-1.866,0.301-5.059,0.301-9.583v-7.704c0-2.34-0.024-4.31-0.077-5.909
		c-0.052-1.609-0.132-2.877-0.242-3.805v-0.002c-0.103-0.901-0.318-1.772-0.646-2.608s-0.767-1.64-1.317-2.407h-0.001
		c-0.551-0.768-1.188-1.437-1.912-2.008c-0.729-0.575-1.549-1.056-2.456-1.44h-0.002c-0.91-0.387-1.88-0.678-2.907-0.872
		c-1.028-0.194-2.12-0.292-3.273-0.292c-1.217,0-2.354,0.103-3.411,0.308c-1.056,0.204-2.035,0.512-2.939,0.921
		c-0.907,0.408-1.718,0.903-2.431,1.485c-0.712,0.581-1.332,1.251-1.859,2.009l-0.002,0.002c-0.532,0.758-0.957,1.557-1.271,2.395
		c-0.314,0.837-0.521,1.715-0.619,2.631v0.001c-0.105,0.941-0.184,2.207-0.234,3.799c-0.051,1.579-0.076,3.511-0.076,5.794v7.704
		c0,2.322,0.027,4.281,0.079,5.877c0.054,1.625,0.135,2.904,0.24,3.837l0,0c0.108,0.904,0.326,1.776,0.655,2.613
		c0.327,0.834,0.767,1.635,1.318,2.403c0.552,0.77,1.188,1.439,1.913,2.012c0.727,0.573,1.545,1.053,2.455,1.437h0.001
		c0.911,0.387,1.881,0.678,2.908,0.872c1.028,0.194,2.12,0.293,3.273,0.293c1.213,0,2.351-0.104,3.41-0.309
		c1.055-0.204,2.037-0.512,2.94-0.92s1.714-0.905,2.43-1.488c0.712-0.58,1.333-1.249,1.86-2.007c0.53-0.761,0.952-1.56,1.266-2.396
		C370.469,60.255,370.677,59.374,370.78,58.452L370.78,58.452z M359.747,34.068c0-1.043-0.028-1.896-0.084-2.558
		c-0.055-0.645-0.134-1.102-0.236-1.369v-0.001c-0.089-0.229-0.225-0.403-0.403-0.516c-0.185-0.116-0.426-0.176-0.722-0.176
		c-0.251,0-0.47,0.05-0.656,0.146s-0.347,0.245-0.479,0.441c-0.133,0.197-0.237,0.623-0.312,1.277v0.001
		c-0.078,0.684-0.118,1.602-0.118,2.753v21.033c0,1.293,0.027,2.337,0.078,3.129c0.051,0.798,0.126,1.342,0.22,1.627
		c0.08,0.242,0.215,0.422,0.399,0.539c0.197,0.125,0.461,0.188,0.785,0.188c0.328,0,0.593-0.07,0.791-0.211h0.002
		c0.195-0.139,0.338-0.353,0.426-0.642c0.101-0.332,0.178-0.908,0.23-1.728c0.052-0.827,0.078-1.905,0.078-3.235V34.068
		L359.747,34.068z M360.228,31.465c0.058,0.679,0.086,1.547,0.086,2.604v20.7c0,1.33-0.026,2.42-0.08,3.271
		c-0.055,0.859-0.14,1.478-0.255,1.855c-0.126,0.412-0.34,0.725-0.64,0.938v0.001c-0.299,0.211-0.673,0.317-1.119,0.317
		c-0.434,0-0.798-0.092-1.089-0.276c-0.298-0.189-0.512-0.47-0.634-0.84c-0.107-0.329-0.191-0.92-0.246-1.77
		c-0.053-0.814-0.081-1.87-0.081-3.164V34.068c0-1.167,0.042-2.106,0.123-2.816c0.085-0.748,0.221-1.259,0.404-1.532
		c0.187-0.275,0.415-0.485,0.688-0.627c0.268-0.139,0.574-0.21,0.917-0.21c0.403,0,0.745,0.089,1.022,0.264
		c0.284,0.179,0.495,0.444,0.629,0.792h0.001C360.077,30.259,360.169,30.768,360.228,31.465L360.228,31.465z"/>
	<path fill="#EF7D00" d="M310.208,22.487h-8.658c-5.591,0-9.361,0.261-11.331,0.792s-3.471,1.39-4.493,2.597
		c-2.796,3.271-2.317,8.651-2.317,12.764v16.035c0,4.113,0.188,6.855,0.572,8.245c0.375,1.381,1.022,1.338,1.961,2.12
		c0.938,0.782,2.092,1.322,3.461,1.641c1.379,0.31,3.444,0.464,6.21,0.464h14.596V22.487L310.208,22.487z M294.383,58.025
		l0.026-4.229V36.004c0-2.076,0.065-3.398,0.188-3.987c0.131-0.579,0.423-1.015,0.882-1.284s2.76-0.415,4.017-0.415v27.813
		C298.271,58.096,295.607,58.061,294.383,58.025L294.383,58.025L294.383,58.025z"/>
	<path fill="#EF7D00" d="M309.925,22.771h-8.375c-2.793,0-5.128,0.064-7.005,0.195c-1.867,0.13-3.285,0.325-4.253,0.586
		c-0.963,0.26-1.809,0.598-2.535,1.017c-0.719,0.414-1.325,0.91-1.815,1.489l-0.001,0.001c-2.379,2.783-2.317,7.208-2.265,10.989
		c0.008,0.585,0.016,1.155,0.016,1.591v16.035c0,2.055,0.047,3.764,0.142,5.125c0.093,1.355,0.233,2.369,0.42,3.045l0.001,0.001
		c0.24,0.882,0.607,1.117,1.105,1.436h0.001c0.227,0.145,0.477,0.305,0.762,0.542c0.449,0.374,0.953,0.693,1.509,0.955
		c0.557,0.264,1.17,0.472,1.836,0.627v0.001c0.673,0.15,1.521,0.264,2.542,0.34c1.023,0.077,2.225,0.115,3.604,0.115h14.313V22.771
		L309.925,22.771z M301.55,22.204h8.658h0.284v0.283v44.657v0.283h-0.284h-14.596c-1.387,0-2.602-0.039-3.646-0.117
		c-1.045-0.077-1.92-0.195-2.625-0.354h-0.004c-0.702-0.163-1.353-0.386-1.948-0.667c-0.598-0.282-1.141-0.626-1.629-1.033
		c-0.251-0.209-0.49-0.362-0.706-0.5h0.001c-0.605-0.387-1.053-0.673-1.349-1.763h0.001c-0.197-0.714-0.344-1.766-0.44-3.156
		c-0.095-1.385-0.143-3.104-0.143-5.163V38.64c0-0.588-0.007-1.081-0.014-1.584c-0.055-3.879-0.118-8.417,2.398-11.362l0,0
		c0.531-0.627,1.188-1.165,1.966-1.614c0.773-0.445,1.664-0.803,2.67-1.073c1.002-0.27,2.455-0.471,4.362-0.604
		C296.406,22.27,298.753,22.204,301.55,22.204L301.55,22.204z M294.101,58.024l0.025-4.228h-0.001V36.004
		c0-1.021,0.017-1.87,0.049-2.547c0.032-0.688,0.082-1.187,0.146-1.497l0.002-0.006c0.073-0.326,0.194-0.614,0.362-0.859h0.001
		c0.17-0.247,0.387-0.451,0.65-0.605c0.239-0.141,0.834-0.247,1.533-0.318c0.868-0.09,1.917-0.137,2.627-0.137h0.284v0.283v27.813
		v0.291l-0.291-0.009c-0.617-0.018-1.586-0.035-2.554-0.053c-0.976-0.018-1.952-0.035-2.559-0.053l0.007-0.282L294.101,58.024
		L294.101,58.024z M294.691,53.798l-0.024,3.953c0.61,0.015,1.443,0.03,2.277,0.045c0.832,0.015,1.664,0.03,2.268,0.045V30.603
		c-0.678,0.011-1.554,0.055-2.286,0.13c-0.629,0.065-1.144,0.148-1.305,0.243c-0.191,0.113-0.349,0.26-0.471,0.438v0.001
		c-0.127,0.186-0.22,0.408-0.278,0.665c-0.058,0.283-0.104,0.751-0.134,1.404c-0.03,0.646-0.046,1.485-0.046,2.521L294.691,53.798
		L294.691,53.798L294.691,53.798z"/>
</g>
</svg>
