<?xml version="1.0" encoding="UTF-8"?>
<!DOCTYPE svg PUBLIC "-//W3C//DTD SVG 1.1//EN" "http://www.w3.org/Graphics/SVG/1.1/DTD/svg11.dtd">
<!-- Creator: CorelDRAW X6 -->
<svg xmlns="http://www.w3.org/2000/svg" xml:space="preserve" width="104.417px" height="20px" version="1.1" style="shape-rendering:geometricPrecision; text-rendering:geometricPrecision; image-rendering:optimizeQuality; fill-rule:evenodd; clip-rule:evenodd"
viewBox="0 0 13592 2600"
 xmlns:xlink="http://www.w3.org/1999/xlink">
 <defs>
  <style type="text/css">
   <![CDATA[
    .fil1 {fill:#008DD2}
    .fil0 {fill:#EF7F1A;fill-rule:nonzero}
   ]]>
  </style>
 </defs>
 <g id="Слой_x0020_2">
  <metadata id="CorelCorpID_0Corel-Layer"/>
  <path class="fil0" d="M776 779l224 1648 -370 0 -19 -296 -203 0 -23 296 -374 0 199 -1648 566 0zm-186 1060c-20,-187 -60,-417 -80,-691l-95 691 175 0z"/>
  <path class="fil0" d="M787 777l224 1648 2 12 -12 0 -370 0 -10 0 -1 -10 -19 -287 -183 0 -22 287 -1 10 -10 0 -374 0 -12 0 1 -12 199 -1648 1 -9 9 0 566 0 9 0 1 9zm202 1639l-221 -1627 -548 0 -196 1627 353 0 22 -287 1 -10 10 0 203 0 10 0 1 10 19 287 348 0zm-410 -588c-7,-63 -16,-131 -26,-204 -16,-115 -33,-243 -46,-383l-81 586 152 0zm-5 -206c10,78 20,150 27,216l1 11 -12 0 -175 0 -12 0 2 -12 95 -691 13 -98 7 98c13,177 34,335 53,475z"/>
  <path class="fil0" d="M2070 2426l-361 0 0 -1319 -176 0 0 934c0,123 -14,211 -43,264 -29,54 -73,87 -132,101 -59,14 -121,20 -250,20l-62 0 0 -284c48,0 81,-7 99,-19 18,-13 27,-57 27,-132l0 -1213 899 0 0 1649z"/>
  <path class="fil0" d="M2070 2437l-361 0 -10 0 0 -10 0 -1309 -156 0 0 923c0,62 -4,115 -11,160 -7,45 -19,82 -33,110 -15,28 -34,51 -57,69 -23,18 -50,30 -81,37 -30,7 -61,12 -100,16 -39,3 -88,5 -152,5l-62 0 -10 0 0 -10 0 -284 0 -10 10 0c23,0 43,-2 58,-5 15,-3 26,-7 34,-13l0 0c7,-5 12,-17 16,-36 4,-21 7,-50 7,-88l0 -1213 0 -10 10 0 899 0 10 0 0 10 0 1649 0 10 -10 0zm-351 -21l341 0 0 -1628 -878 0 0 1203c0,38 -2,69 -7,92 -5,25 -13,41 -24,49l0 0c-10,7 -24,13 -42,16 -15,3 -32,5 -52,5l0 263 51 0c64,0 112,-2 151,-5 39,-3 69,-8 97,-15 28,-6 52,-18 73,-33 21,-16 38,-37 52,-62 14,-26 24,-60 31,-103 7,-43 11,-96 11,-156l0 -934 0 -10 10 0 176 0 10 0 0 10 0 1309z"/>
  <path class="fil0" d="M3138 2041c0,123 -15,211 -44,264 -29,54 -73,87 -132,101 -59,14 -154,20 -283,20l-453 0 0 -1649 392 0 0 617 61 0c121,0 212,8 274,23 62,16 108,50 139,104 31,53 46,137 46,251l0 269zm-371 -19l0 -217c0,-69 -6,-112 -19,-126 -13,-15 -70,-23 -129,-25l0 521c50,0 104,-7 122,-21 18,-14 27,-58 27,-131z"/>
  <path class="fil0" d="M3148 2041c0,62 -4,115 -11,160 -7,45 -19,82 -34,110 -15,28 -34,51 -57,69 -23,18 -51,30 -82,37 -30,7 -69,12 -117,16 -47,3 -103,5 -168,5l-453 0 -10 0 0 -10 0 -1649 0 -10 10 0 392 0 10 0 0 10 0 606 50 0c61,0 114,2 160,6 46,4 85,10 117,18 32,8 61,21 85,39 24,18 44,41 61,69l0 0c16,28 28,63 36,106 8,43 12,93 12,150l0 269zm-32 156c7,-43 11,-96 11,-156l0 -269c0,-56 -4,-105 -11,-146 -7,-41 -19,-74 -33,-99l0 0c-15,-25 -33,-46 -55,-63 -22,-16 -48,-28 -77,-36 -30,-8 -68,-13 -113,-17 -45,-4 -98,-6 -158,-6l-61 0 -10 0 0 -10 0 -606 -371 0 0 1628 442 0c64,0 120,-2 167,-5 47,-3 85,-8 114,-15 28,-6 53,-18 74,-34 21,-16 38,-36 52,-62l0 0c14,-26 25,-60 32,-103zm-361 -175l0 -217c0,-34 -2,-62 -5,-82 -3,-19 -7,-32 -12,-38 -4,-5 -18,-9 -37,-13 -21,-4 -47,-7 -74,-8l0 500c23,0 45,-2 65,-6 19,-3 34,-8 40,-13 7,-5 12,-18 16,-37l0 0c4,-21 6,-50 6,-86zm21 -217l0 217c0,37 -2,67 -7,90l0 0c-5,24 -13,41 -24,49 -10,8 -28,13 -50,17 -23,4 -52,6 -78,6l-10 0 0 -10 0 -521 0 -11 11 0c32,1 64,4 88,9 23,5 41,11 49,20 8,9 13,25 17,48 3,22 5,50 5,85z"/>
  <path class="fil0" d="M5467 779l224 1648 -370 0 -19 -296 -203 0 -23 296 -374 0 199 -1648 566 0zm-186 1060c-20,-187 -60,-417 -80,-691l-95 691 175 0z"/>
  <path class="fil0" d="M5477 777l224 1648 2 12 -12 0 -370 0 -10 0 -1 -10 -19 -287 -183 0 -22 287 -1 10 -10 0 -374 0 -12 0 1 -12 199 -1648 1 -9 9 0 566 0 9 0 1 9zm202 1639l-221 -1627 -548 0 -196 1627 353 0 22 -287 1 -10 10 0 203 0 10 0 1 10 19 287 348 0zm-410 -588c-7,-63 -16,-131 -26,-204 -16,-115 -33,-243 -46,-383l-81 586 152 0zm-5 -206c10,78 20,150 27,216l1 11 -12 0 -175 0 -12 0 2 -12 95 -691 13 -98 7 98c13,177 34,335 53,475z"/>
  <path class="fil0" d="M4678 1422c0,108 -5,186 -14,233 -13,66 -41,125 -83,178 -66,82 -189,123 -371,123l-62 0 0 474 -399 -1 0 -473 -61 0c-182,0 -306,-41 -371,-123 -42,-53 -70,-112 -83,-178 -10,-48 -14,-125 -14,-233l0 -28c0,-108 4,-186 14,-233 13,-66 41,-125 83,-178 65,-80 189,-112 371,-120l61 -3 392 0c32,2 55,3 69,3 183,0 306,40 371,120 42,53 70,112 83,178 9,48 14,125 14,233l0 28zm-530 -306l0 584 33 0c30,0 86,-17 106,-51 20,-34 30,-79 30,-134l0 -213c0,-56 -10,-102 -30,-136 -20,-34 -76,-51 -106,-51l-33 0zm-399 584l0 -584 -33 0c-29,0 -85,17 -105,51 -20,34 -30,79 -30,136l0 213c0,56 10,101 30,134 20,34 76,51 105,51l33 0z"/>
  <path class="fil0" d="M4688 1422c0,54 -1,100 -4,139 -2,40 -6,71 -11,96l0 0c-7,34 -17,66 -31,96 -14,30 -32,59 -54,86 -34,43 -83,75 -147,96 -63,21 -140,31 -232,31l-52 0 0 464 0 10 -10 0 -399 -1 -10 0 0 -10 0 -463 -50 0c-92,0 -170,-10 -233,-31 -64,-21 -113,-53 -147,-96 -22,-27 -39,-56 -54,-86l0 0c-14,-30 -25,-62 -31,-96l0 0c-5,-24 -8,-56 -11,-95 -2,-39 -3,-86 -3,-140l0 -28c0,-54 1,-101 3,-140 2,-39 6,-71 11,-95l0 0c7,-34 17,-66 31,-96 14,-30 32,-59 54,-86l0 0c34,-42 83,-71 147,-90 63,-19 140,-30 232,-34l61 -3 0 0 392 0 1 0c16,1 30,2 41,2 11,0 20,1 27,1 92,0 170,10 233,31 64,21 113,52 146,93l0 0c22,27 39,56 54,86 14,30 25,63 31,96l0 0c5,24 8,56 11,96 2,39 4,86 4,139l0 28zm-24 138c2,-38 3,-84 3,-138l0 -28c0,-54 -1,-100 -3,-138 -2,-39 -6,-70 -10,-93l0 0c-6,-32 -16,-63 -30,-92 -13,-29 -30,-56 -51,-82 -31,-38 -76,-67 -136,-87 -61,-20 -136,-30 -226,-30 -7,0 -16,0 -28,-1 -12,0 -25,-1 -41,-2l0 0 -392 0 0 0 -60 3c-90,4 -166,14 -227,33 -60,18 -105,45 -137,83l0 0c-21,26 -38,53 -51,82 -13,29 -23,60 -30,92l0 0c-5,23 -8,54 -10,92 -2,38 -3,85 -3,139l0 28c0,54 1,100 3,138 2,38 6,69 10,93l0 0c6,32 16,62 30,91l0 0c13,29 30,56 51,82 32,40 77,69 137,89 61,20 136,30 226,30l61 0 10 0 0 10 0 463 378 1 0 -464 0 -10 10 0 62 0c90,0 165,-10 226,-30 60,-20 106,-50 137,-89 21,-26 38,-53 51,-82 13,-29 23,-59 30,-91l0 0c5,-23 8,-54 10,-93zm-505 -434l0 564 23 0c15,0 39,-5 60,-15 16,-8 30,-18 38,-31 9,-16 17,-35 21,-56 5,-22 7,-46 7,-73l0 -213c0,-28 -2,-52 -7,-74 -5,-21 -12,-40 -21,-56 -8,-13 -22,-23 -37,-31 -21,-10 -44,-15 -60,-15l-23 0zm-21 574l0 -584 0 -10 10 0 33 0c18,0 45,6 68,17 19,9 36,22 46,39 11,18 19,39 24,62 5,23 8,50 8,78l0 213c0,29 -3,55 -8,78 -5,23 -13,44 -24,62 -10,17 -27,30 -46,39 -24,11 -51,17 -69,17l-33 0 -10 0 0 -10zm-399 -10l0 -564 -22 0c-27,0 -78,15 -96,46 -10,16 -17,35 -21,56 -5,22 -7,47 -7,74l0 213c0,27 2,52 7,73 5,21 12,40 21,56 8,13 22,23 37,31 21,10 44,15 59,15l22 0zm21 -574l0 584 0 10 -10 0 -33 0c-18,0 -44,-6 -68,-17 -19,-9 -36,-22 -46,-39 -11,-18 -19,-39 -24,-62 -5,-23 -8,-49 -8,-78l0 -213c0,-29 3,-55 8,-78 5,-24 13,-44 24,-62 22,-37 82,-56 114,-56l33 0 10 0 0 10z"/>
  <path class="fil0" d="M4679 1415c0,108 -5,186 -14,233 -13,66 -41,125 -83,178 -66,82 -189,123 -371,123l-69 0 0 273 -392 0 0 -273 -61 0c-182,0 -306,-41 -371,-123 -42,-53 -70,-112 -83,-178 -10,-48 -14,-125 -14,-233l0 -28c0,-108 4,-186 14,-233 13,-66 41,-125 83,-178 65,-80 189,-120 371,-120 14,0 34,-1 61,-3l0 -72 392 0 0 71c32,2 55,3 69,3 183,0 306,40 371,120 42,53 70,112 83,178 9,48 14,125 14,233l0 28zm-360 92l0 -213c0,-56 -10,-102 -30,-136 -20,-34 -76,-51 -106,-51l-40 0 0 584 40 0c30,0 86,-17 106,-51 20,-34 30,-79 30,-134zm-568 186l0 -584 -33 0c-29,0 -85,17 -105,51 -20,34 -30,79 -30,136l0 213c0,56 10,101 30,134 20,34 76,51 105,51l33 0z"/>
  <path class="fil0" d="M4689 1415c0,54 -1,100 -4,139 -2,40 -6,71 -11,96l0 0c-7,34 -17,66 -31,96 -14,30 -32,59 -54,86 -34,43 -83,75 -147,96 -63,21 -140,31 -232,31l-58 0 0 262 0 10 -10 0 -392 0 -10 0 0 -10 0 -262 -50 0c-92,0 -170,-10 -233,-31 -64,-21 -113,-53 -147,-96 -22,-27 -39,-56 -54,-86l0 0c-14,-30 -25,-63 -31,-96l0 0c-5,-24 -8,-56 -11,-95 -2,-39 -3,-86 -3,-140l0 -28c0,-54 1,-101 3,-140 2,-39 6,-71 11,-95l0 0c7,-34 17,-66 31,-96 14,-30 32,-59 54,-86l0 0c34,-42 83,-73 147,-93 63,-20 141,-31 233,-31 7,0 15,0 25,-1 7,0 16,-1 25,-1l0 -62 0 -10 10 0 392 0 10 0 0 10 0 61c12,1 22,1 31,2 11,0 20,1 27,1 92,0 170,10 233,31 64,21 113,52 146,93l0 0c22,27 39,56 54,86 14,30 25,63 31,96l0 0c5,24 8,56 11,96 2,39 4,86 4,139l0 28zm-24 138c2,-38 3,-84 3,-138l0 -28c0,-54 -1,-100 -3,-138 -2,-39 -6,-70 -10,-93l0 0c-6,-32 -16,-63 -30,-92 -13,-29 -30,-56 -51,-82 -31,-38 -76,-67 -136,-87 -61,-20 -136,-30 -226,-30 -7,0 -16,0 -28,-1 -12,0 -26,-1 -41,-2l-10 -1 0 -10 0 -61 -371 0 0 61 0 10 -10 1c-13,1 -25,2 -35,2 -11,0 -19,1 -26,1 -90,0 -166,10 -226,30 -60,19 -106,48 -137,87l0 0c-21,26 -38,53 -51,82 -13,29 -23,60 -30,92l0 0c-5,23 -8,54 -10,92 -2,38 -3,85 -3,139l0 28c0,54 1,100 3,138 2,38 6,69 10,93l0 0c6,32 16,63 30,91l0 0c13,29 30,56 51,82 32,40 77,69 137,89 61,20 136,30 226,30l61 0 10 0 0 10 0 262 371 0 0 -262 0 -10 10 0 69 0c90,0 165,-10 226,-30 60,-20 106,-50 137,-89 21,-26 38,-53 51,-82 13,-29 23,-59 30,-91l0 0c5,-23 8,-54 10,-93zm-357 -46l0 -213c0,-28 -2,-52 -7,-74 -5,-21 -12,-40 -21,-56 -8,-13 -22,-23 -37,-31 -21,-10 -44,-15 -60,-15l-30 0 0 564 30 0c15,0 39,-5 60,-15 16,-8 30,-18 38,-31 9,-16 17,-35 21,-56 5,-22 7,-46 7,-73zm21 -213l0 213c0,29 -3,55 -8,78 -5,23 -13,44 -24,62 -10,17 -27,30 -46,39 -24,11 -51,17 -69,17l-40 0 -10 0 0 -10 0 -584 0 -10 10 0 40 0c18,0 45,6 68,17 19,9 36,22 46,39 11,18 19,39 24,62 5,23 8,50 8,78zm-589 388l0 -564 -22 0c-27,0 -78,15 -96,46 -10,16 -17,35 -21,56 -5,22 -7,47 -7,74l0 213c0,27 2,52 7,73 5,21 12,40 21,56 8,13 22,23 37,31 21,10 44,15 59,15l22 0zm21 -574l0 584 0 10 -10 0 -33 0c-18,0 -44,-6 -68,-17 -19,-9 -36,-22 -46,-39 -11,-18 -19,-39 -24,-62 -5,-23 -8,-49 -8,-78l0 -213c0,-29 3,-55 8,-78 5,-24 13,-44 24,-62 22,-37 82,-56 114,-56l33 0 10 0 0 10z"/>
  <path class="fil1" d="M8193 2514l0 0m-1236 -1371l0 0m737 767l0 0m333 -64l34 125 -343 86 -35 -128c-2,-8 3,-17 11,-19l1 0 314 -75c8,-2 16,3 19,11zm48 175l85 310 1 4 -342 89c-55,13 -145,28 -232,31 -275,10 -409,-163 -490,-394l-1 1c-64,-193 -131,-388 -194,-580 -19,-67 -42,-150 -82,-207 -12,-16 -23,-27 -32,-35 -10,-6 -22,-10 -35,-12 -14,-2 -29,-3 -46,0l0 0c-61,9 -114,60 -156,133 -49,85 -81,197 -91,303 -9,100 -10,196 12,268 22,70 67,117 150,124 139,11 197,-202 246,-380 7,-25 13,-49 20,-72 49,141 113,332 178,527 -46,88 -104,164 -176,219 -86,66 -191,104 -320,102 -9,0 -17,0 -25,-1 -141,-10 -247,-88 -318,-213 -70,-124 -105,-294 -102,-490 0,-31 2,-63 4,-94 17,-229 82,-432 183,-583 99,-147 233,-244 391,-265 50,-7 99,-4 145,7 185,44 246,209 319,377 138,315 103,1002 569,924l342 -91zm-982 -1637l-125 -29c-8,-2 -13,-10 -12,-18l0 0 70 -325c2,-8 10,-14 18,-12l1 0 122 28 -74 356zm125 -344l22 5 0 0 0 0 0 0 299 64 0 0 0 0 2 0 -248 1238c-1,3 -1,6 0,8l-6 27c-57,-178 -125,-364 -243,-512l174 -831zm374 81l134 29c8,2 14,10 12,19l0 1 -70 324c-2,8 -10,14 -18,12l0 0 0 0 -128 -28 71 -356zm582 2263l30 110c2,8 -3,17 -11,19l-1 0 -314 86c-8,2 -16,-3 -19,-11l-27 -110 341 -94z"/>
  <path class="fil0" d="M9101 1102l-305 0 0 1319 -416 0 0 -1649 721 0 0 330zm1038 1319l-347 0 0 -750 -216 750 -364 0 0 -1649 347 0 0 744 233 -744 347 0 0 1649zm1352 128l-287 0 0 -128 -670 0 0 128 -286 0 0 -472 116 0 1042 -2 85 0 0 474zm129 -1776l418 0c113,0 200,9 261,27 61,18 107,45 137,79 31,35 51,77 62,126 11,49 16,125 16,229l0 143c0,105 -10,182 -31,230 -21,48 -60,85 -116,111 -56,26 -130,39 -220,39l-111 0 0 664 -415 0 0 -1648zm415 282l0 419c12,1 22,1 30,1 38,0 65,-10 79,-29 15,-19 22,-60 22,-121l0 -135c0,-56 -9,-93 -26,-110 -17,-17 -52,-26 -106,-26zm1546 683c0,166 -4,283 -11,352 -8,69 -31,132 -71,189 -40,57 -94,101 -161,131 -68,31 -147,46 -237,46 -85,0 -162,-15 -230,-43 -68,-29 -123,-72 -164,-130 -41,-58 -66,-121 -74,-188 -8,-68 -12,-187 -12,-356l0 -282c0,-166 4,-283 11,-352 7,-69 31,-132 71,-189 40,-57 93,-101 161,-131 68,-31 146,-46 237,-46 85,0 162,15 230,43 68,29 123,72 164,130 41,58 66,121 74,188 8,68 12,187 12,356l0 282zm-415 -541c0,-77 -4,-126 -12,-147 -8,-21 -25,-32 -51,-32 -22,0 -39,9 -50,26 -12,17 -17,68 -17,153l0 769c0,96 4,155 11,177 7,23 26,34 53,34 28,0 47,-13 54,-39 8,-26 12,-87 12,-184l0 -757z"/>
  <path class="fil0" d="M9101 1113l-294 0 0 1309 0 10 -10 0 -416 0 -10 0 0 -10 0 -1649 0 -10 10 0 721 0 10 0 0 10 0 330 0 10 -10 0zm-305 -21l294 0 0 -309 -700 0 0 1628 395 0 0 -1309 0 -10 10 0zm1343 1340l-347 0 -10 0 0 -10 0 -677 -196 679 -2 8 -8 0 -364 0 -10 0 0 -10 0 -1649 0 -10 10 0 347 0 10 0 0 10 0 676 213 -679 2 -7 8 0 347 0 10 0 0 10 0 1649 0 10 -10 0zm-336 -21l326 0 0 -1628 -329 0 -231 737 -20 65 0 -68 0 -733 -326 0 0 1628 346 0 214 -743 20 -71 0 73 0 740zm1689 149l-287 0 -10 0 0 -10 0 -118 -649 0 0 118 0 10 -10 0 -286 0 -10 0 0 -10 0 -472 0 -10 10 0 116 0 0 0 1042 -2 0 0 85 0 10 0 0 10 0 474 0 10 -10 0zm-276 -21l266 0 0 -454 -74 0 0 0 -1042 2 0 0 -106 0 0 452 265 0 0 -118 0 -10 10 0 670 0 10 0 0 10 0 118zm405 -1776l418 0c57,0 107,2 151,7 44,5 82,12 113,21l0 0c31,9 59,21 82,35 24,14 44,30 60,48 16,18 29,38 40,60 11,22 19,45 24,71 5,25 10,57 12,96 3,38 4,84 4,135l0 143c0,107 -11,185 -32,234 -11,25 -27,48 -47,67l0 0c-20,19 -45,36 -74,49l0 0c-29,13 -62,23 -100,30 -37,7 -79,10 -125,10l-101 0 0 653 0 10 -10 0 -415 0 -10 0 0 -10 0 -1648 0 -10 10 0zm418 21l-407 0 0 1627 394 0 0 -653 0 -10 10 0 111 0c45,0 85,-3 121,-9 36,-6 67,-16 95,-28l0 0c27,-13 50,-28 68,-45l0 0c18,-18 33,-38 43,-61 20,-47 30,-122 30,-226l0 -143c0,-51 -1,-96 -4,-134 -3,-38 -7,-68 -12,-93 -5,-24 -13,-46 -23,-66 -10,-20 -22,-39 -37,-55 -14,-16 -33,-31 -54,-43 -22,-13 -48,-24 -78,-33l0 0c-30,-9 -66,-16 -109,-20 -43,-4 -93,-7 -149,-7zm8 282l0 399 6 0c4,0 9,0 14,0 18,0 33,-2 45,-7 11,-4 20,-10 26,-18l0 0c6,-8 11,-22 15,-40 4,-19 5,-44 5,-74l0 -135c0,-27 -2,-50 -6,-67 -4,-16 -9,-28 -16,-35 -7,-7 -19,-13 -35,-17 -14,-3 -32,-6 -54,-6zm-21 409l0 -419 0 -10 10 0c28,0 51,2 69,7 20,5 35,12 45,22 10,10 17,25 22,45 4,19 7,43 7,72l0 135c0,31 -2,57 -6,78 -4,22 -10,38 -19,49l0 0c-9,11 -20,20 -35,25 -14,5 -32,8 -52,8 -4,0 -8,0 -14,0 -5,0 -11,0 -17,-1l-10 -1 0 -10zm1567 264c0,166 -4,283 -11,353l0 0c-4,35 -12,69 -24,102 -12,32 -28,63 -49,92 -20,29 -44,55 -72,78 -28,22 -59,42 -93,57 -34,16 -72,27 -112,35 -40,8 -83,12 -129,12 -43,0 -84,-4 -124,-11 -39,-7 -76,-18 -111,-33l0 0c-35,-15 -66,-33 -95,-55 -28,-22 -53,-48 -74,-78 -21,-29 -38,-60 -51,-92 -13,-32 -21,-66 -25,-101l0 0c-4,-34 -7,-82 -9,-142 -2,-60 -3,-132 -3,-216l0 -282c0,-82 1,-153 3,-213 2,-59 5,-106 9,-141 4,-35 12,-69 24,-101 12,-32 28,-63 49,-92l0 0c20,-29 44,-55 72,-78 28,-22 59,-42 93,-57 35,-16 72,-27 112,-35 40,-8 83,-12 129,-12 43,0 84,4 124,11 39,7 76,18 111,33l0 0c35,15 66,33 95,56 28,22 53,48 74,78l0 0c21,30 38,60 51,93 13,32 21,66 25,101 4,34 7,81 9,141 2,60 3,132 3,217l0 282zm-32 350c7,-68 11,-185 11,-350l0 -282c0,-86 -1,-158 -3,-216 -2,-59 -5,-105 -9,-139l0 0c-4,-33 -12,-65 -24,-95 -12,-31 -28,-60 -48,-88l0 0c-20,-28 -43,-53 -70,-73 -27,-21 -57,-39 -90,-53l0 0c-33,-14 -69,-25 -106,-32 -38,-7 -78,-11 -120,-11 -44,0 -86,4 -125,11 -39,7 -74,19 -108,34 -33,15 -63,33 -89,54 -26,21 -49,46 -68,73l0 0c-19,28 -35,57 -47,88 -11,31 -19,63 -23,96l0 0c-4,34 -7,81 -9,139 -2,58 -3,128 -3,212l0 282c0,85 1,157 3,215 2,59 5,106 9,140l0 0c4,33 12,65 24,96 12,30 28,60 48,88 20,28 43,53 70,74 27,21 56,39 90,53l0 0c33,14 69,25 106,32 38,7 78,11 120,11 44,0 86,-4 125,-11 39,-7 74,-19 108,-34 33,-15 63,-33 89,-54 26,-21 49,-46 68,-73 19,-28 35,-57 46,-88 12,-31 19,-63 23,-97zm-403 -892c0,-38 -1,-69 -3,-94 -2,-24 -5,-40 -9,-50l0 0c-3,-8 -8,-15 -15,-19 -7,-4 -16,-6 -26,-6 -9,0 -17,2 -24,5 -7,4 -13,9 -18,16 -5,7 -9,23 -11,47l0 0c-3,25 -4,59 -4,101l0 769c0,47 1,85 3,114 2,29 5,49 8,60 3,9 8,15 15,20 7,5 17,7 29,7 12,0 22,-3 29,-8l0 0c7,-5 12,-13 16,-23 4,-12 7,-33 8,-63 2,-30 3,-70 3,-118l0 -757zm18 -95c2,25 3,57 3,95l0 757c0,49 -1,89 -3,120 -2,31 -5,54 -9,68 -5,15 -12,27 -23,34l0 0c-11,8 -25,12 -41,12 -16,0 -29,-3 -40,-10 -11,-7 -19,-17 -23,-31 -4,-12 -7,-34 -9,-65 -2,-30 -3,-68 -3,-116l0 -769c0,-43 2,-77 4,-103 3,-27 8,-46 15,-56 7,-10 15,-18 25,-23 10,-5 21,-8 34,-8 15,0 27,3 37,10 10,7 18,16 23,29l0 0c5,12 8,30 10,56z"/>
  <path class="fil0" d="M11345 774l-317 0c-204,0 -342,10 -414,29 -72,19 -127,51 -164,95 -102,120 -85,316 -85,467l0 586c0,150 7,251 21,302 14,50 37,49 72,78 34,29 77,48 127,60 50,11 126,17 227,17l534 0 0 -1633zm-579 1300l1 -155 0 -651c0,-76 2,-124 7,-146 5,-21 15,-37 32,-47 17,-10 101,-15 147,-15l0 1017c-45,-1 -142,-3 -187,-4"/>
  <path class="fil0" d="M11334 784l-306 0c-102,0 -188,2 -256,7 -68,5 -120,12 -156,21 -35,9 -66,22 -93,37 -26,15 -48,33 -66,54l0 0c-87,102 -85,264 -83,402 0,21 1,42 1,58l0 586c0,75 2,138 5,187 3,50 9,87 15,111l0 0c9,32 22,41 40,52l0 0c8,5 17,11 28,20 16,14 35,25 55,35 20,10 43,17 67,23l0 0c25,5 56,10 93,12 37,3 81,4 132,4l523 0 0 -1612zm-306 -21l317 0 10 0 0 10 0 1633 0 10 -10 0 -534 0c-51,0 -95,-1 -133,-4 -38,-3 -70,-7 -96,-13l0 0c-26,-6 -49,-14 -71,-24 -22,-10 -42,-23 -60,-38 -9,-8 -18,-13 -26,-18l0 0c-22,-14 -38,-25 -49,-64l0 0c-7,-26 -13,-65 -16,-115 -3,-51 -5,-114 -5,-189l0 -586c0,-21 0,-40 -1,-58 -2,-142 -4,-308 88,-416l0 0c19,-23 43,-43 72,-59 28,-16 61,-29 98,-39 37,-10 90,-17 160,-22 69,-5 155,-7 258,-7zm-272 1310l1 -155 0 0 0 -651c0,-37 1,-68 2,-93 1,-25 3,-43 5,-55l0 0c3,-12 7,-22 13,-31l0 0c6,-9 14,-16 24,-22 9,-5 30,-9 56,-12 32,-3 70,-5 96,-5l10 0 0 10 0 1017 0 11 -11 0c-23,-1 -58,-1 -93,-2 -36,-1 -71,-1 -94,-2l0 -10 -10 0zm22 -155l-1 145c22,1 53,1 83,2 30,1 61,1 83,2l0 -996c-25,0 -57,2 -84,5 -23,2 -42,5 -48,9 -7,4 -13,9 -17,16l0 0c-5,7 -8,15 -10,24 -2,10 -4,27 -5,51 -1,24 -2,54 -2,92l0 651 0 0z"/>
 </g>
</svg>
